<?xml version="1.0" encoding="UTF-8" standalone="no"?>
<!-- Created with Inkscape (http://www.inkscape.org/) -->

<svg
   xmlns:dc="http://purl.org/dc/elements/1.1/"
   xmlns:cc="http://creativecommons.org/ns#"
   xmlns:rdf="http://www.w3.org/1999/02/22-rdf-syntax-ns#"
   xmlns:svg="http://www.w3.org/2000/svg"
   xmlns="http://www.w3.org/2000/svg"
   xmlns:sodipodi="http://sodipodi.sourceforge.net/DTD/sodipodi-0.dtd"
   xmlns:inkscape="http://www.inkscape.org/namespaces/inkscape"
   id="svg5807"
   version="1.1"
   inkscape:version="0.91 r13725"
   width="708.59998"
   height="379.5"
   viewBox="0 0 708.59998 379.5"
   sodipodi:docname="0-DFv3.svg">
  <metadata
     id="metadata5813">
    <rdf:RDF>
      <cc:Work
         rdf:about="">
        <dc:format>image/svg+xml</dc:format>
        <dc:type
           rdf:resource="http://purl.org/dc/dcmitype/StillImage" />
        <dc:title></dc:title>
      </cc:Work>
    </rdf:RDF>
  </metadata>
  <defs
     id="defs5811" />
  <sodipodi:namedview
     pagecolor="#ffffff"
     bordercolor="#666666"
     borderopacity="1"
     objecttolerance="10"
     gridtolerance="10"
     guidetolerance="10"
     inkscape:pageopacity="0"
     inkscape:pageshadow="2"
     inkscape:window-width="1278"
     inkscape:window-height="779"
     id="namedview5809"
     showgrid="false"
     inkscape:zoom="1.4142136"
     inkscape:cx="343.9552"
     inkscape:cy="104.2217"
     inkscape:window-x="0"
     inkscape:window-y="19"
     inkscape:window-maximized="0"
     inkscape:current-layer="svg5807" />
  <path
     style="fill:#139786;fill-opacity:1;stroke:#139786;stroke-width:0.43865752;stroke-opacity:1"
     d="M 229.13867 76.902344 C 228.1524 76.897454 227.20053 76.921581 226.28906 76.974609 C 217.4968 77.486134 206.50163 79.26496 199.96875 81.234375 C 184.45977 85.909747 171.39389 92.912855 158.23633 103.60352 C 154.15912 106.91629 144.22254 116.72264 141.15625 120.45898 C 139.96828 121.90655 138.88949 123.18992 138.75977 123.31055 C 138.63004 123.43118 137.28342 125.20708 135.76758 127.25781 C 134.25173 129.30853 132.77694 131.28264 132.49023 131.64453 C 131.67547 132.67292 127.9125 138.45513 126.93555 140.17969 C 122.57519 147.87687 120.46727 151.92943 118.5957 156.20898 C 117.59334 158.50097 116.51319 160.96958 116.19727 161.69336 C 112.91662 169.20946 108.97897 182.64361 107.25977 192.17969 C 103.07955 215.36667 103.3074 230.43181 108.14453 250.52148 C 110.6222 260.81179 115.07514 270.29289 121.22461 278.36914 C 121.58914 278.84789 123.46639 280.83089 125.39648 282.77539 C 130.14601 287.56038 136.50657 291.78258 141.18945 293.26172 C 145.65442 294.67203 146.0535 294.7669 152.375 295.88867 C 154.56515 296.27732 165.80478 295.70473 167.94727 295.0957 C 171.53223 294.07664 174.30835 293.05593 175.77734 292.2168 C 179.43969 290.12476 180.00481 289.75969 180.00781 289.48242 C 180.00933 289.31832 179.46816 289.35178 178.80469 289.55664 C 172.29192 291.56756 168.82031 292.1938 164.19141 292.19336 C 160.83456 292.19289 155.72279 291.46646 153.4707 290.66992 C 141.38624 286.39577 133.57988 277.13538 129.79102 262.58398 C 127.95841 255.54572 127.3129 244.75555 128.25781 236.92188 C 129.36873 227.71198 129.935 223.99867 130.89453 219.5957 C 132.09881 214.0697 132.41365 212.73434 133.17188 209.94531 C 133.63099 208.25648 134.29547 205.78983 134.64844 204.46289 C 135.55089 201.07034 138.75253 190.90605 139.41602 189.32812 C 139.72036 188.60434 140.59791 186.2358 141.36523 184.06445 C 142.60589 180.55362 145.1752 174.21047 147.67383 168.49219 C 150.96927 160.9504 159.93954 143.5639 161.85938 140.99609 C 162.43357 140.22809 162.90234 139.4787 162.90234 139.33203 C 162.90234 139.0361 171.21461 126.29169 171.63477 125.94336 C 171.78028 125.82272 173.07279 124.14934 174.50586 122.22461 C 177.05226 118.80463 177.51743 118.23008 181.08789 114.12305 C 184.66772 110.00523 192.64074 102.28687 196.24023 99.455078 C 198.29096 97.841739 200.21319 96.325535 200.51172 96.085938 C 200.81026 95.84634 202.88248 94.532208 205.11719 93.166016 C 211.98723 88.966009 219.17613 86.119336 226.31445 84.771484 C 229.68131 84.135759 242.37272 84.118179 246.19727 84.744141 C 257.03752 86.518355 263.8339 89.010833 271.96094 94.189453 C 275.46466 96.422054 276.38318 97.113041 279.60742 99.951172 C 280.49819 100.73527 281.35739 101.37695 281.51758 101.37695 C 282.99916 101.37695 274.88981 93.233512 269.94531 89.755859 C 265.46875 86.60732 256.83309 82.175141 252.60742 80.857422 C 244.61713 78.36575 236.04257 76.936571 229.13867 76.902344 z M 249.82617 103.5918 C 246.83914 103.54422 243.35964 103.76314 241.20312 104.2168 C 236.38766 105.22981 231.78526 107.11058 228.56641 109.37891 C 226.63059 110.74313 227.47643 110.75081 230.29492 109.39453 C 238.13423 105.62219 246.30426 105.18061 255.24023 108.04883 C 267.00777 111.82592 274.77247 120.83674 278.2207 134.71484 C 279.19641 138.6418 280.02344 144.54681 280.02344 147.58594 C 280.02344 152.40903 278.20183 167.13058 276.45898 176.38867 C 275.72665 180.27881 274.10915 187.45429 273.44336 189.76758 C 273.23505 190.49137 272.85596 191.87284 272.60156 192.83789 C 271.28054 197.84906 269.2888 204.66034 268.17578 207.9707 C 266.56722 212.75488 264.71071 218.03359 264.24219 219.15625 C 264.04082 219.63877 262.84968 222.59993 261.59375 225.73633 C 258.32511 233.89904 253.26788 244.63471 249.0918 252.27539 C 237.76108 273.00643 222.76553 290.72314 208.19727 300.5918 C 201.8393 304.89874 192.92779 308.98306 186.15234 310.69531 C 179.46996 312.38404 164.96234 312.91412 158.19336 311.7168 C 146.65521 309.67591 136.09566 304.02623 127.28516 295.18164 C 124.7199 292.60645 120.79102 287.15254 120.79102 286.16602 C 120.79102 285.86186 120.49471 285.61328 120.13281 285.61328 C 119.77092 285.61328 119.47842 285.76242 119.48242 285.94336 C 119.50083 286.76992 123.57875 293.76711 125.72852 296.66016 C 128.1685 299.94378 134.56197 306.35703 136.8457 307.8125 C 137.54524 308.25834 138.21726 308.7532 138.33789 308.91211 C 139.07331 309.88093 150.52511 315.88086 151.63867 315.88086 C 151.94724 315.88086 152.38603 316.03846 152.61523 316.23047 C 154.10457 317.47816 164.79624 319.93894 171.89453 320.66797 C 181.06923 321.61025 193.20093 320.92497 202.16211 318.95898 C 213.41815 316.48953 223.86464 312.41078 233.08789 306.88281 C 235.13861 305.65371 237.30365 304.36252 237.89844 304.01367 C 239.03085 303.34948 246.74508 297.88042 247.125 297.47266 C 247.24563 297.3432 248.3308 296.45559 249.53711 295.49805 C 259.19832 287.82917 269.48082 276.3936 277.55273 264.33984 C 279.65306 261.20344 281.56228 258.39881 281.79492 258.10742 C 282.02756 257.81602 282.2168 257.48588 282.2168 257.375 C 282.2168 257.26412 283.07281 255.72611 284.11719 253.95703 C 285.799 251.10822 290.45546 241.82026 292.5 237.23633 C 294.07445 233.70637 297.20689 225.00038 298.84766 219.5957 C 300.53758 214.02905 302.90554 202.87088 303.68945 196.78516 C 305.19975 185.06046 305.19351 173.53612 303.66992 163.00977 C 300.69431 142.45173 291.93745 125.86698 278.33594 115.03125 C 276.24861 113.36836 273.80121 111.59101 272.89648 111.08008 C 271.99175 110.56915 270.5102 109.72986 269.60547 109.21484 C 266.74395 107.58591 261.47779 105.50754 258.75 104.93164 C 257.30243 104.62602 255.28891 104.19406 254.27734 103.97266 C 253.23314 103.74412 251.61839 103.62034 249.82617 103.5918 z "
     id="path5875" />
  <path
     style="fill:#0c84a2;fill-opacity:1;stroke:#0c84a2;stroke-width:0.30251402;stroke-opacity:1"
     d="M 378.67969 131.88477 L 378.67969 188.15234 L 378.67969 244.41992 L 401.29297 244.41602 C 413.7855 244.41437 425.85591 244.27402 428.26172 244.10156 C 436.55244 243.50723 441.33078 242.37637 447.15039 239.63086 C 451.74021 237.46553 454.4134 235.58523 457.95508 232.03711 C 465.90401 224.07374 471.04547 212.46037 472.42773 199.34375 C 473.58376 188.37395 472.87693 176.60335 470.49609 167.12695 C 465.77075 148.31875 453.50408 135.98247 436.66406 133.10352 C 430.91967 132.12147 424.11597 131.88972 400.83984 131.88672 L 378.67969 131.88477 z M 492.72852 131.88477 L 492.72852 188.15234 L 492.72852 244.41992 L 503.76758 244.41992 L 514.80859 244.41992 L 514.88477 220.44531 L 514.96289 196.4707 L 538.48242 196.39258 L 562.00391 196.31641 L 562.00391 186.94141 L 562.00391 177.56641 L 538.48242 177.49023 L 514.96289 177.41211 L 514.96289 164.10156 L 514.96289 150.79102 L 542.26562 150.71289 L 569.56641 150.63672 L 569.56641 141.25977 L 569.56641 131.88477 L 531.14648 131.88477 L 492.72852 131.88477 z M 401.36914 150.64062 L 411.14062 150.64062 C 426.52819 150.64063 431.02564 151.19193 436.1543 153.71289 C 438.1788 154.70802 439.23533 155.49367 441.14648 157.42188 C 444.03676 160.33793 445.68543 163.11568 447.17383 167.58008 C 448.5316 171.65267 449.08998 175.12637 449.5293 182.20508 C 449.94468 188.89811 449.5269 198.29805 448.57227 203.73047 C 446.15623 217.47915 440.06697 223.77465 427.95117 225.05078 L 427.95117 225.05273 C 426.39159 225.217 419.77272 225.35247 413.24219 225.35547 L 401.36914 225.36133 L 401.36914 188 L 401.36914 150.64062 z M 324.22852 192.99219 L 324.22852 203.73047 L 324.22852 214.4707 L 345.25195 214.4707 L 366.27734 214.4707 L 366.27734 203.73047 L 366.27734 192.99219 L 345.25195 192.99219 L 324.22852 192.99219 z "
     id="path5892" />
  <text
     xml:space="preserve"
     style="font-style:normal;font-variant:normal;font-weight:500;font-stretch:normal;font-size:17.80713463px;line-height:125%;font-family:gargi;-inkscape-font-specification:'gargi Medium';letter-spacing:0px;word-spacing:0px;fill:#16667f;fill-opacity:1;stroke:none;stroke-width:1px;stroke-linecap:butt;stroke-linejoin:miter;stroke-opacity:1;"
     x="101.18306"
     y="115.14361"
     id="text5900"
     sodipodi:linespacing="125%"
     transform="scale(1.0176381,0.98266761)"><tspan
       sodipodi:role="line"
       id="tspan5902"
       x="101.18306"
       y="115.14361"
       style="font-style:normal;font-variant:normal;font-weight:500;font-stretch:normal;font-family:gargi;-inkscape-font-specification:'gargi Medium';fill:#16667f;fill-opacity:1;">TM</tspan></text>
</svg>
