<?xml version="1.0" encoding="UTF-8" standalone="no"?>
<!-- Created with Inkscape (http://www.inkscape.org/) -->

<svg
   xmlns:dc="http://purl.org/dc/elements/1.1/"
   xmlns:cc="http://creativecommons.org/ns#"
   xmlns:rdf="http://www.w3.org/1999/02/22-rdf-syntax-ns#"
   xmlns:svg="http://www.w3.org/2000/svg"
   xmlns="http://www.w3.org/2000/svg"
   xmlns:sodipodi="http://sodipodi.sourceforge.net/DTD/sodipodi-0.dtd"
   xmlns:inkscape="http://www.inkscape.org/namespaces/inkscape"
   id="svg2"
   version="1.1"
   inkscape:version="0.91 r13725"
   width="708.59998"
   height="379.5"
   viewBox="0 0 708.59998 379.5"
   sodipodi:docname="0-MIv3.svg">
  <metadata
     id="metadata8">
    <rdf:RDF>
      <cc:Work
         rdf:about="">
        <dc:format>image/svg+xml</dc:format>
        <dc:type
           rdf:resource="http://purl.org/dc/dcmitype/StillImage" />
        <dc:title></dc:title>
      </cc:Work>
    </rdf:RDF>
  </metadata>
  <defs
     id="defs6" />
  <sodipodi:namedview
     pagecolor="#ffffff"
     bordercolor="#666666"
     borderopacity="1"
     objecttolerance="10"
     gridtolerance="10"
     guidetolerance="10"
     inkscape:pageopacity="0"
     inkscape:pageshadow="2"
     inkscape:window-width="1678"
     inkscape:window-height="1029"
     id="namedview4"
     showgrid="false"
     inkscape:zoom="2.3706674"
     inkscape:cx="358.60402"
     inkscape:cy="195.40698"
     inkscape:window-x="1280"
     inkscape:window-y="19"
     inkscape:window-maximized="0"
     inkscape:current-layer="svg2" />
  <text
     xml:space="preserve"
     style="font-style:normal;font-variant:normal;font-weight:normal;font-stretch:normal;font-size:17.81572533px;line-height:125%;font-family:FreeSans;-inkscape-font-specification:FreeSans;letter-spacing:0px;word-spacing:0px;fill:#16667f;fill-opacity:1;stroke:none;stroke-width:1px;stroke-linecap:butt;stroke-linejoin:miter;stroke-opacity:1"
     x="102.39884"
     y="113.73392"
     id="text3354"
     sodipodi:linespacing="125%"
     transform="scale(1.0055803,0.99445067)"><tspan
       sodipodi:role="line"
       id="tspan3356"
       x="102.39884"
       y="113.73392">TM</tspan></text>
  <path
     style="fill:#0c84a2;fill-opacity:1;stroke:#0c84a2;stroke-width:0.31882712;stroke-opacity:1"
     d="M 378.4668 131.88281 L 378.4668 188.15625 L 378.4668 244.42969 L 388.77539 244.42969 L 399.08594 244.42969 L 399.29688 223.62695 C 399.41322 212.18504 399.50962 192.30431 399.50977 179.44922 C 399.50993 165.07248 399.62373 156.14672 399.80664 156.25977 C 399.9702 156.36086 400.26803 157.26625 400.46875 158.27148 C 400.66946 159.27671 401.8238 163.90193 403.0332 168.54883 C 404.24259 173.19574 405.45499 178.0735 405.72852 179.38867 C 406.00204 180.70383 407.14776 185.36613 408.27344 189.75 C 411.37205 201.81733 414.17449 212.95779 415.05078 216.69141 C 415.48292 218.53264 416.88066 224.12738 418.1582 229.125 C 419.43575 234.12261 420.79508 239.6106 421.17773 241.32031 L 421.87305 244.42969 L 432.66797 244.42969 C 442.67316 244.42969 443.47744 244.38818 443.63281 243.87109 C 444.06418 242.43546 446.97625 231.06996 447.16602 230.08203 C 447.28391 229.46829 448.50765 224.51804 449.88477 219.08203 C 455.82867 195.61941 457.24079 189.97754 457.55078 188.47461 C 457.73162 187.59783 458.93155 182.79254 460.2168 177.79492 C 461.50205 172.79731 463.24825 165.886 464.09766 162.43555 C 464.94707 158.9851 465.75469 156.23121 465.89258 156.31641 C 466.03047 156.40163 466.14453 163.10997 466.14453 171.22461 C 466.14453 179.33926 466.23888 199.13109 466.35547 215.20508 L 466.56836 244.42969 L 476.87695 244.42969 L 487.1875 244.42969 L 487.1875 188.15625 L 487.1875 131.88281 L 470.16992 131.88281 L 453.1543 131.88281 L 452.2832 135.31055 C 451.80326 137.19561 450.47377 142.25264 449.33008 146.54883 C 448.18639 150.84503 446.79044 156.22625 446.22852 158.50586 C 445.6666 160.78547 444.30755 166.02174 443.20703 170.14258 C 440.86492 178.91246 436.90985 193.93157 434.70508 202.42578 C 433.8515 205.71431 433.00979 208.35683 432.83594 208.29883 C 432.6621 208.24088 432.39631 207.63129 432.24609 206.94336 C 432.09586 206.25542 430.98947 202.10457 429.78711 197.7207 C 428.58474 193.33682 427.43757 189.03303 427.23633 188.15625 C 426.89591 186.67312 425.80397 182.5747 419.89258 160.58398 C 418.64438 155.94061 417.20462 150.45005 416.69336 148.38281 C 416.18211 146.31557 415.12994 142.36793 414.35547 139.60938 C 413.581 136.85081 412.78703 133.98354 412.5918 133.23828 L 412.23828 131.88281 L 395.35156 131.88281 L 378.4668 131.88281 z M 509.50391 131.88281 L 509.50391 188.15625 L 509.50391 244.42969 L 520.82227 244.42969 L 532.14062 244.42969 L 532.14062 188.15625 L 532.14062 131.88281 L 520.82227 131.88281 L 509.50391 131.88281 z M 323.94727 193.09766 L 323.94727 203.7793 L 323.94727 214.45898 L 344.99023 214.45898 L 366.0332 214.45898 L 366.0332 203.7793 L 366.0332 193.09766 L 344.99023 193.09766 L 323.94727 193.09766 z "
     id="path3358" />
  <path
     style="fill:#139786;fill-opacity:1;stroke:#139786;stroke-width:0.30367824;stroke-opacity:1"
     d="M 229.32031 77.007812 C 219.5453 77.007417 208.11254 78.699969 197.90625 81.744141 C 182.60025 86.309376 168.83202 94.229732 154.02539 106.99023 C 146.29296 113.65412 136.19198 125.47861 129.57227 135.61523 C 120.3074 149.80231 112.22462 168.8843 108.41016 185.57031 C 103.5059 207.02355 102.97127 226.26335 106.75586 245.19531 C 109.52939 259.06956 114.38515 270.03457 121.91992 279.43945 C 129.00153 288.2787 139.04013 293.94978 150.86914 295.79297 C 154.58515 296.37202 161.71824 296.36552 165.20312 295.7793 C 170.46588 294.89401 175.74099 292.77967 179.70312 289.96875 C 180.75833 289.22013 181.57849 288.56432 181.52539 288.51172 C 181.47231 288.45912 179.65177 289.0049 177.48047 289.72461 C 171.66139 291.65342 168.61434 292.11378 162.82617 291.93164 C 159.3376 291.82187 157.41566 291.61165 155.71484 291.1543 C 142.88603 287.70464 133.62561 277.3878 129.82422 262.3125 C 128.42268 256.75437 127.99857 252.90169 128.01367 245.84961 C 128.05451 226.79653 134.01792 201.87475 144.76562 175.85156 C 153.2036 155.42084 162.52382 138.61625 173.73438 123.61914 C 190.22382 101.56011 207.38509 88.838796 225.62695 85.150391 C 228.66593 84.53593 229.97064 84.447231 235.93945 84.457031 C 240.79484 84.465014 243.79308 84.621574 246.30078 84.994141 C 250.55036 85.625498 257.46254 87.295025 260.38477 88.396484 C 267.45714 91.062225 273.98564 95.162595 280.80664 101.22461 C 282.18458 102.44922 283.3125 103.34387 283.3125 103.21094 C 283.3125 102.54782 279.05871 97.436676 276.27539 94.755859 C 266.06118 84.917811 251.69652 78.719305 235.78711 77.283203 C 233.74333 77.098716 231.57608 77.007904 229.32031 77.007812 z M 248.84375 103.52734 C 241.27671 103.37777 234.24237 105.36584 228.04883 109.46094 C 226.37178 110.56979 222.46697 114.0451 222.66992 114.24805 C 222.73002 114.30815 224.08981 113.48101 225.69141 112.41016 C 232.1266 108.10752 237.2692 106.42669 243.98633 106.42969 C 249.72378 106.43263 255.52848 107.84326 260.58984 110.46289 C 263.73384 112.09013 265.43556 113.33501 268.07812 115.94922 C 275.16876 122.96377 279.64396 135.19871 279.66016 147.60938 C 279.66512 151.40164 278.7366 161.39881 277.8125 167.5 C 276.39469 176.86094 272.41191 193.97682 269.34961 203.86914 C 260.50499 232.44043 245.91574 260.9645 230.86914 279.10352 C 226.89334 283.89644 217.30779 293.58021 213.76953 296.37891 C 203.20284 304.73698 191.47791 310.01998 179.97656 311.60352 C 175.07219 312.27876 166.30684 312.51524 162.44922 312.07617 C 151.35806 310.81378 140.43379 306.30265 132.2207 299.5918 C 127.9779 296.12503 123.17441 290.50101 121.26758 286.76953 C 120.76263 285.78138 120.34028 285.32812 119.92773 285.32812 C 119.5965 285.32812 119.32617 285.46692 119.32617 285.63672 C 119.32617 286.30416 122.70708 292.63548 124.4375 295.20898 C 126.60137 298.42708 129.83354 302.08175 132.99219 304.88281 C 142.88371 313.6545 156.96116 319.38976 172.17578 320.84375 C 176.58695 321.2653 190.20832 321.00167 194.48633 320.41211 C 208.11395 318.53405 222.02742 313.72297 233.70508 306.85156 C 256.12276 293.66047 275.36263 272.32625 288.50977 246.08203 C 297.21242 228.70988 301.88768 212.99571 304.16406 193.46484 C 304.90256 187.13034 304.89841 172.81328 304.15625 166.4375 C 301.74604 145.73175 295.20796 131.01798 283.08594 119.02539 C 276.5608 112.56993 270.38374 108.60531 262.97266 106.11133 C 258.11477 104.47655 253.38398 103.61709 248.84375 103.52734 z "
     id="path3384" />
</svg>
